PathFileType	4	(X/Y/Z)	 s04c0102.trc
DataRate	CameraRate	NumFrames	NumMarkers	Units	OrigDataRate	OrigDataStartFrame	OrigNumFrames
200	200	6	50	mm	200	251	2000
Frame#	Time	racr			lacr			c7			jug			rlel			rdr			llel			ldr			s2			lic			ric			lasi			rasi			rpsi			lpsi			rgt			lgt			rth1			rth2			rth3			rth4			rlfc			rmfc			rsh1			rsh2			rsh3			rsh4			rlmal			rmmal			rcal			rtoe			rmt5			lth1			lth2			lth4			lth3			llfc			lmfc			lsh1			lsh2			lsh3			lsh4			llmal			lmmal			lcal			ltoe			lmt5			SBIKE			LBIKE			RBIKE			
		X1	Y1	Z1	X2	Y2	Z2	X3	Y3	Z3	X4	Y4	Z4	X5	Y5	Z5	X6	Y6	Z6	X7	Y7	Z7	X8	Y8	Z8	X9	Y9	Z9	X10	Y10	Z10	X11	Y11	Z11	X12	Y12	Z12	X13	Y13	Z13	X14	Y14	Z14	X15	Y15	Z15	X16	Y16	Z16	X17	Y17	Z17	X18	Y18	Z18	X19	Y19	Z19	X20	Y20	Z20	X21	Y21	Z21	X22	Y22	Z22	X23	Y23	Z23	X24	Y24	Z24	X25	Y25	Z25	X26	Y26	Z26	X27	Y27	Z27	X28	Y28	Z28	X29	Y29	Z29	X30	Y30	Z30	X31	Y31	Z31	X32	Y32	Z32	X33	Y33	Z33	X34	Y34	Z34	X35	Y35	Z35	X36	Y36	Z36	X37	Y37	Z37	X38	Y38	Z38	X39	Y39	Z39	X40	Y40	Z40	X41	Y41	Z41	X42	Y42	Z42	X43	Y43	Z43	X44	Y44	Z44	X45	Y45	Z45	X46	Y46	Z46	X47	Y47	Z47	X48	Y48	Z48	X49	Y49	Z49	X50	Y50	Z50	
251	1.2550	495.768472	1420.632502	-109.524087	514.158364	1391.096092	-406.608023	490.476175	1456.777989	-264.553098	492.442798	1310.968123	-254.374350	495.205356	1117.461577	-1.335357	697.481638	911.833516	-84.552422	483.010996	1112.674882	-507.926763	698.581301	917.211385	-446.183778	-53.522860	1188.670922	-273.442616	109.469348	1191.491641	-420.071952	104.448105	1166.776638	-107.990631	NaN	NaN	NaN	144.079291	1109.256629	-148.622100	-18.614461	1225.504876	-226.418313	-19.716724	1237.095409	-301.871588	46.027731	1109.066748	-97.598845	68.364473	1131.931520	-468.781624	122.824554	958.228687	-78.703694	177.758299	889.866925	-90.528435	193.889695	806.029008	-98.327083	206.588284	905.693966	-108.635868	237.752056	669.076013	-127.975406	207.974326	652.494263	-238.067608	175.550320	558.225660	-100.266340	159.219494	468.835249	-113.169803	100.221898	405.467697	-117.104008	186.342161	459.258721	-140.169801	45.446294	262.485559	-124.712013	65.184169	268.670124	-211.360113	-28.629390	233.468344	-165.657743	268.775833	191.843093	-152.808556	199.099193	173.576364	-98.903922	132.616306	1079.819171	-470.992841	218.551551	1071.913581	-470.416986	230.555615	1102.346612	-453.008149	291.501964	1020.910017	-478.686764	427.864924	937.899400	-453.212541	458.364158	918.140292	-343.007072	386.344890	831.696345	-474.084585	359.996134	750.894305	-451.915130	295.722480	689.503904	-449.141012	383.491423	740.965597	-422.261666	212.854034	568.794911	-437.620207	210.771920	574.827529	-349.112353	128.735400	554.047200	-394.602315	426.771204	509.053283	-401.779194	352.494556	480.100468	-463.125052	-177.802718	937.699739	-280.380958	-3.248132	85.584948	-484.592447	-14.986073	80.431340	-84.277291	
252	1.2600	495.787012	1420.641430	-109.528356	514.175959	1391.078557	-406.597528	490.475315	1456.784153	-264.540871	492.458661	1310.931670	-254.312424	495.183165	1117.455740	-1.338365	697.476095	911.830722	-84.565157	483.004133	1112.669387	-507.915632	698.571914	917.223134	-446.199696	-53.498662	1188.659864	-273.407892	109.483300	1191.513215	-420.020298	104.463401	1166.748223	-107.984586	NaN	NaN	NaN	144.100121	1109.232931	-148.617874	-18.591831	1225.483105	-226.394741	-19.271374	1237.066700	-302.110499	46.060304	1109.047728	-97.602408	68.360719	1131.976407	-468.763703	122.818645	958.192159	-78.664972	177.727177	889.829485	-90.534721	193.845920	805.979371	-98.330406	206.552189	905.676818	-108.604731	237.695908	669.025144	-127.987337	207.910839	652.448499	-238.072491	175.541611	558.149086	-100.257170	159.224917	468.782747	-113.160451	100.249030	405.399702	-117.091274	186.351017	459.188202	-140.174993	45.533088	262.380477	-124.721897	65.259415	268.621753	-211.336659	-28.523702	233.348812	-165.676992	268.884048	191.826832	-152.805430	199.222909	173.507674	-98.903565	132.613147	1079.858747	-470.981506	218.560104	1071.935755	-470.417844	230.568648	1102.374408	-452.996107	291.501202	1020.930293	-478.717174	427.862018	937.931306	-453.239973	458.392610	918.179916	-343.027510	386.308122	831.738209	-474.075465	359.939675	750.965187	-451.928982	295.631504	689.612898	-449.192094	383.434053	741.012946	-422.283083	212.735602	568.902376	-437.619929	210.670715	574.924857	-349.105916	128.619131	554.194161	-394.581101	426.648823	509.097482	-401.772236	352.367775	480.163259	-463.132265	-177.805973	937.699521	-280.385700	-3.217893	85.592312	-484.591825	-14.976357	80.424982	-84.260833	
253	1.2650	495.787026	1420.615876	-109.538654	514.197742	1391.064664	-406.612726	490.490347	1456.778803	-264.503729	492.504774	1310.938548	-254.331875	495.170333	1117.433056	-1.326189	697.481640	911.817868	-84.546946	482.987248	1112.652484	-507.903409	698.577148	917.237140	-446.205461	-53.488888	1188.680391	-273.385928	109.468254	1191.517233	-419.994396	104.521004	1166.695280	-107.979454	NaN	NaN	NaN	144.120915	1109.209370	-148.613315	-18.540069	1225.485178	-226.377197	-19.694178	1237.126514	-301.808701	46.095783	1109.003701	-97.593994	68.365877	1131.995604	-468.756632	122.797769	958.166834	-78.661155	177.687304	889.792641	-90.523749	193.797804	805.937791	-98.323744	206.537591	905.631654	-108.590182	237.618122	668.979512	-127.968896	207.857909	652.395289	-238.038389	175.517950	558.070783	-100.243311	159.243466	468.732924	-113.150964	100.284900	405.328456	-117.078375	186.363897	459.158816	-140.146719	45.638166	262.275166	-124.713972	65.337082	268.495901	-211.346843	-28.423910	233.223221	-165.670099	269.002220	191.801364	-152.804967	199.351017	173.468485	-98.896845	132.618277	1079.889330	-470.961679	218.552493	1071.982055	-470.428307	230.580254	1102.400816	-453.006499	291.505077	1020.960879	-478.731445	427.864419	937.974287	-453.277780	458.377622	918.205034	-343.042538	386.274994	831.798504	-474.090859	359.898898	751.009743	-451.934542	295.556850	689.687831	-449.208097	383.377429	741.057806	-422.316333	212.620372	569.011529	-437.632444	210.597243	575.021539	-349.081013	128.510910	554.343631	-394.577043	426.513242	509.134768	-401.788106	352.236922	480.215569	-463.128421	-177.804984	937.706086	-280.374456	-3.235995	85.617229	-484.597434	-14.993496	80.437193	-84.267456	
254	1.2700	495.815287	1420.646226	-109.507544	514.215451	1391.047083	-406.609084	490.481801	1456.788837	-264.535752	492.537071	1310.926793	-254.308401	495.176330	1117.414181	-1.333980	697.477950	911.816122	-84.564398	482.979615	1112.645719	-507.892861	698.568910	917.242965	-446.205420	-53.487995	1188.671031	-273.346866	109.469429	1191.522151	-419.973317	104.538021	1166.661811	-107.970255	NaN	NaN	NaN	144.141390	1109.186102	-148.608235	-18.566286	1225.493369	-226.325827	-19.698145	1237.130092	-301.779246	46.099961	1108.984676	-97.591141	68.383060	1132.030362	-468.740532	122.793140	958.145972	-78.659054	177.661596	889.749082	-90.533125	193.757115	805.877499	-98.314683	206.507259	905.587874	-108.583051	237.575085	668.941893	-127.964895	207.777722	652.338618	-238.044920	175.475772	558.015620	-100.255248	159.262489	468.692588	-113.136307	100.312102	405.232615	-117.073466	186.360582	459.071336	-140.147093	45.744952	262.171494	-124.720735	65.468884	268.353829	-211.335397	-28.304725	233.045229	-165.663070	269.098251	191.788592	-152.816545	199.441415	173.414468	-98.903072	132.611826	1079.924731	-470.979924	218.547737	1072.017013	-470.444558	230.577578	1102.428605	-453.033532	291.496698	1020.994572	-478.761142	427.858494	937.995710	-453.294169	458.405762	918.233380	-343.095746	386.257783	831.851564	-474.118205	359.846322	751.063708	-451.968389	295.484872	689.756582	-449.214664	383.329445	741.096070	-422.317076	212.507091	569.126383	-437.633490	210.501158	575.113496	-349.090841	128.385891	554.466778	-394.578440	426.387318	509.187440	-401.788708	352.102427	480.289928	-463.131688	-177.791740	937.701739	-280.358651	-3.237980	85.603450	-484.597444	-14.978453	80.443094	-84.280039	
255	1.2750	495.806821	1420.648876	-109.499929	514.271320	1391.029667	-406.614486	490.486690	1456.790606	-264.508732	492.554872	1310.926146	-254.305852	495.189714	1117.406797	-1.331719	697.487965	911.802137	-84.563982	482.963700	1112.631754	-507.878653	698.563286	917.248294	-446.198289	-53.474299	1188.668286	-273.317716	109.482824	1191.539267	-419.943848	104.565032	1166.634163	-107.968657	NaN	NaN	NaN	144.161254	1109.163282	-148.602453	-18.513703	1225.477363	-226.307964	-19.705154	1237.138340	-301.738909	46.108210	1108.969436	-97.581746	68.379745	1132.052744	-468.734108	122.764547	958.108727	-78.637075	177.631381	889.688637	-90.505322	193.737461	805.823602	-98.276857	206.493155	905.527080	-108.576434	237.502481	668.873708	-127.957499	207.736632	652.300608	-238.028395	175.449614	557.959778	-100.241222	159.288655	468.643509	-113.133693	100.341558	405.123545	-117.071528	186.389451	459.034872	-140.131934	45.812291	262.054248	-124.723123	65.523291	268.281305	-211.333721	-28.196215	232.910460	-165.639091	269.211487	191.769522	-152.812400	199.555886	173.368772	-98.896143	132.620760	1079.936951	-470.976613	218.547808	1072.056449	-470.460939	230.582406	1102.472563	-453.037825	291.512491	1021.016906	-478.778571	427.870882	938.033753	-453.345556	458.413729	918.257860	-343.132758	386.231874	831.890720	-474.144171	359.794553	751.111146	-451.980944	295.417314	689.830910	-449.230518	383.278291	741.141715	-422.329987	212.405033	569.213307	-437.628649	210.383241	575.230320	-349.095414	128.293239	554.578016	-394.557940	426.260665	509.221078	-401.792510	351.971188	480.350401	-463.132237	-177.791248	937.699736	-280.369570	-3.232715	85.590761	-484.598361	-14.983665	80.427498	-84.258409	
256	1.2800	495.834598	1420.659759	-109.496450	514.298549	1391.011272	-406.634089	490.492503	1456.787446	-264.499370	492.551321	1310.927487	-254.258962	495.231530	1117.423513	-1.321309	697.483001	911.803964	-84.552080	482.957036	1112.618885	-507.867481	698.560234	917.243960	-446.184619	-53.463604	1188.669242	-273.293294	109.499964	1191.552744	-419.918602	104.595981	1166.612965	-107.955198	NaN	NaN	NaN	144.180216	1109.141048	-148.595813	-18.518842	1225.483008	-226.256907	-19.519669	1237.053323	-301.782138	46.136137	1108.952206	-97.572599	68.374721	1132.065569	-468.706380	122.762071	958.048897	-78.622269	177.590496	889.627739	-90.481951	193.673934	805.756543	-98.298065	206.443903	905.483863	-108.534607	237.465573	668.813269	-127.959497	207.668107	652.244085	-238.023545	175.432556	557.841806	-100.250814	159.293014	468.595517	-113.134686	100.362532	405.051101	-117.066163	186.356134	458.975360	-140.124150	45.891664	261.936181	-124.738327	65.593351	268.166038	-211.329683	-28.106731	232.768375	-165.644128	269.297622	191.759024	-152.807352	199.661076	173.315181	-98.893493	132.617490	1079.972650	-470.977082	218.543619	1072.076493	-470.475037	230.585354	1102.493037	-453.041893	291.505533	1021.048900	-478.794483	427.888121	938.057483	-453.373612	458.407264	918.283880	-343.173601	386.212001	831.932579	-474.162488	359.740529	751.153570	-451.988535	295.359358	689.887503	-449.249413	383.247860	741.183335	-422.365083	212.290987	569.337102	-437.659649	210.309333	575.337851	-349.108957	128.200829	554.690684	-394.552720	426.147878	509.242036	-401.791777	351.838748	480.425120	-463.136870	-177.803598	937.712680	-280.376763	-3.229185	85.610830	-484.594043	-14.977893	80.431329	-84.255903	
